<mxfile host="app.diagrams.net" modified="2021-10-15T04:29:28.214Z" agent="5.0 (Macintosh; Intel Mac OS X 10_15_6) AppleWebKit/605.1.15 (KHTML, like Gecko) Version/14.0.3 Safari/605.1.15" etag="h0iSwhSUvJqgcikRcKdr" version="15.5.2" type="github" pages="2">
  <diagram id="i5TkZFW7wgPddpX6c2qj" name="Page-1">
    <mxGraphModel dx="770" dy="620" grid="1" gridSize="10" guides="1" tooltips="1" connect="1" arrows="1" fold="1" page="1" pageScale="1" pageWidth="1100" pageHeight="850" math="0" shadow="0">
      <root>
        <mxCell id="0" />
        <mxCell id="1" parent="0" />
      </root>
    </mxGraphModel>
  </diagram>
  <diagram id="mUfE07TGgoDqmEL339yq" name="Page-2">
    <mxGraphModel dx="1100" dy="886" grid="1" gridSize="10" guides="1" tooltips="1" connect="1" arrows="1" fold="1" page="1" pageScale="1" pageWidth="1100" pageHeight="850" math="1" shadow="0">
      <root>
        <mxCell id="fOfSJAuA315CUXJoR_F2-0" />
        <mxCell id="fOfSJAuA315CUXJoR_F2-1" parent="fOfSJAuA315CUXJoR_F2-0" />
        <mxCell id="kT5wU6VZecdG8zgLiYxm-0" value="&lt;h1&gt;&lt;i&gt;&lt;font style=&quot;font-size: 36px&quot;&gt;Dropout&lt;/font&gt;&lt;/i&gt;&lt;/h1&gt;&lt;div style=&quot;font-size: 24px&quot;&gt;&lt;font style=&quot;font-size: 24px&quot;&gt;Este método un implica añadir ruido mientras se calcula \(z^{[\ell]}\) de cada capa intermedia &amp;nbsp;\(\ell \in \{1, 2, \cdots, L-2, L-1\}\). Esta técnica consiste en&amp;nbsp;dejar fuera (&lt;i&gt;drop out)&lt;/i&gt;&amp;nbsp;cierta cantidad de neuronas de cada capa durante el&amp;nbsp;entrenamiento.&lt;/font&gt;&lt;/div&gt;&lt;p style=&quot;font-size: 30px&quot;&gt;&lt;br&gt;&lt;/p&gt;" style="text;html=1;strokeColor=none;fillColor=none;spacing=5;spacingTop=-20;whiteSpace=wrap;overflow=hidden;rounded=0;" vertex="1" parent="fOfSJAuA315CUXJoR_F2-1">
          <mxGeometry x="40" y="20" width="560" height="250" as="geometry" />
        </mxCell>
        <mxCell id="kT5wU6VZecdG8zgLiYxm-85" value="" style="ellipse;whiteSpace=wrap;html=1;aspect=fixed;fontSize=36;" vertex="1" parent="fOfSJAuA315CUXJoR_F2-1">
          <mxGeometry x="140" y="330" width="40" height="40" as="geometry" />
        </mxCell>
        <mxCell id="kT5wU6VZecdG8zgLiYxm-86" value="" style="ellipse;whiteSpace=wrap;html=1;aspect=fixed;fontSize=36;" vertex="1" parent="fOfSJAuA315CUXJoR_F2-1">
          <mxGeometry x="140" y="410" width="40" height="40" as="geometry" />
        </mxCell>
        <mxCell id="kT5wU6VZecdG8zgLiYxm-87" value="" style="ellipse;whiteSpace=wrap;html=1;aspect=fixed;fontSize=36;" vertex="1" parent="fOfSJAuA315CUXJoR_F2-1">
          <mxGeometry x="140" y="490" width="40" height="40" as="geometry" />
        </mxCell>
        <mxCell id="kT5wU6VZecdG8zgLiYxm-88" value="" style="ellipse;whiteSpace=wrap;html=1;aspect=fixed;fontSize=36;" vertex="1" parent="fOfSJAuA315CUXJoR_F2-1">
          <mxGeometry x="140" y="570" width="40" height="40" as="geometry" />
        </mxCell>
        <mxCell id="kT5wU6VZecdG8zgLiYxm-89" value="" style="ellipse;whiteSpace=wrap;html=1;aspect=fixed;fontSize=36;" vertex="1" parent="fOfSJAuA315CUXJoR_F2-1">
          <mxGeometry x="260" y="330" width="40" height="40" as="geometry" />
        </mxCell>
        <mxCell id="kT5wU6VZecdG8zgLiYxm-90" value="" style="ellipse;whiteSpace=wrap;html=1;aspect=fixed;fontSize=36;" vertex="1" parent="fOfSJAuA315CUXJoR_F2-1">
          <mxGeometry x="260" y="410" width="40" height="40" as="geometry" />
        </mxCell>
        <mxCell id="kT5wU6VZecdG8zgLiYxm-91" value="" style="ellipse;whiteSpace=wrap;html=1;aspect=fixed;fontSize=36;" vertex="1" parent="fOfSJAuA315CUXJoR_F2-1">
          <mxGeometry x="260" y="490" width="40" height="40" as="geometry" />
        </mxCell>
        <mxCell id="kT5wU6VZecdG8zgLiYxm-92" value="" style="ellipse;whiteSpace=wrap;html=1;aspect=fixed;fontSize=36;" vertex="1" parent="fOfSJAuA315CUXJoR_F2-1">
          <mxGeometry x="260" y="570" width="40" height="40" as="geometry" />
        </mxCell>
        <mxCell id="kT5wU6VZecdG8zgLiYxm-93" value="" style="ellipse;whiteSpace=wrap;html=1;aspect=fixed;fontSize=36;" vertex="1" parent="fOfSJAuA315CUXJoR_F2-1">
          <mxGeometry x="380" y="330" width="40" height="40" as="geometry" />
        </mxCell>
        <mxCell id="kT5wU6VZecdG8zgLiYxm-94" value="" style="ellipse;whiteSpace=wrap;html=1;aspect=fixed;fontSize=36;" vertex="1" parent="fOfSJAuA315CUXJoR_F2-1">
          <mxGeometry x="380" y="410" width="40" height="40" as="geometry" />
        </mxCell>
        <mxCell id="kT5wU6VZecdG8zgLiYxm-95" value="" style="ellipse;whiteSpace=wrap;html=1;aspect=fixed;fontSize=36;" vertex="1" parent="fOfSJAuA315CUXJoR_F2-1">
          <mxGeometry x="380" y="490" width="40" height="40" as="geometry" />
        </mxCell>
        <mxCell id="kT5wU6VZecdG8zgLiYxm-96" value="" style="ellipse;whiteSpace=wrap;html=1;aspect=fixed;fontSize=36;" vertex="1" parent="fOfSJAuA315CUXJoR_F2-1">
          <mxGeometry x="380" y="570" width="40" height="40" as="geometry" />
        </mxCell>
        <mxCell id="kT5wU6VZecdG8zgLiYxm-97" value="" style="ellipse;whiteSpace=wrap;html=1;aspect=fixed;fontSize=36;" vertex="1" parent="fOfSJAuA315CUXJoR_F2-1">
          <mxGeometry x="500" y="450" width="40" height="40" as="geometry" />
        </mxCell>
        <mxCell id="kT5wU6VZecdG8zgLiYxm-98" value="" style="endArrow=classic;html=1;rounded=0;fontSize=36;entryX=0;entryY=0.5;entryDx=0;entryDy=0;exitX=1;exitY=0.5;exitDx=0;exitDy=0;" edge="1" parent="fOfSJAuA315CUXJoR_F2-1" source="kT5wU6VZecdG8zgLiYxm-90" target="kT5wU6VZecdG8zgLiYxm-94">
          <mxGeometry y="330" width="50" height="50" as="geometry">
            <mxPoint x="300" y="450" as="sourcePoint" />
            <mxPoint x="350" y="400" as="targetPoint" />
          </mxGeometry>
        </mxCell>
        <mxCell id="kT5wU6VZecdG8zgLiYxm-99" value="" style="endArrow=classic;html=1;rounded=0;fontSize=36;entryX=0;entryY=0.5;entryDx=0;entryDy=0;exitX=1;exitY=0.5;exitDx=0;exitDy=0;" edge="1" parent="fOfSJAuA315CUXJoR_F2-1">
          <mxGeometry y="330" width="50" height="50" as="geometry">
            <mxPoint x="300" y="349.5" as="sourcePoint" />
            <mxPoint x="380" y="349.5" as="targetPoint" />
          </mxGeometry>
        </mxCell>
        <mxCell id="kT5wU6VZecdG8zgLiYxm-100" value="" style="endArrow=classic;html=1;rounded=0;fontSize=36;entryX=0;entryY=0.5;entryDx=0;entryDy=0;exitX=1;exitY=0.5;exitDx=0;exitDy=0;" edge="1" parent="fOfSJAuA315CUXJoR_F2-1">
          <mxGeometry y="330" width="50" height="50" as="geometry">
            <mxPoint x="300" y="509.5" as="sourcePoint" />
            <mxPoint x="380" y="509.5" as="targetPoint" />
          </mxGeometry>
        </mxCell>
        <mxCell id="kT5wU6VZecdG8zgLiYxm-101" value="" style="endArrow=classic;html=1;rounded=0;fontSize=36;entryX=0;entryY=0.5;entryDx=0;entryDy=0;exitX=1;exitY=0.5;exitDx=0;exitDy=0;" edge="1" parent="fOfSJAuA315CUXJoR_F2-1">
          <mxGeometry y="330" width="50" height="50" as="geometry">
            <mxPoint x="300" y="589.5" as="sourcePoint" />
            <mxPoint x="380" y="589.5" as="targetPoint" />
          </mxGeometry>
        </mxCell>
        <mxCell id="kT5wU6VZecdG8zgLiYxm-102" value="" style="endArrow=classic;html=1;rounded=0;fontSize=36;entryX=0;entryY=0.5;entryDx=0;entryDy=0;exitX=1;exitY=0.5;exitDx=0;exitDy=0;" edge="1" parent="fOfSJAuA315CUXJoR_F2-1">
          <mxGeometry y="330" width="50" height="50" as="geometry">
            <mxPoint x="180" y="509.5" as="sourcePoint" />
            <mxPoint x="260" y="509.5" as="targetPoint" />
          </mxGeometry>
        </mxCell>
        <mxCell id="kT5wU6VZecdG8zgLiYxm-103" value="" style="endArrow=classic;html=1;rounded=0;fontSize=36;entryX=0;entryY=0.5;entryDx=0;entryDy=0;exitX=1;exitY=0.5;exitDx=0;exitDy=0;" edge="1" parent="fOfSJAuA315CUXJoR_F2-1">
          <mxGeometry y="330" width="50" height="50" as="geometry">
            <mxPoint x="180" y="589.5" as="sourcePoint" />
            <mxPoint x="260" y="589.5" as="targetPoint" />
          </mxGeometry>
        </mxCell>
        <mxCell id="kT5wU6VZecdG8zgLiYxm-104" value="" style="endArrow=classic;html=1;rounded=0;fontSize=36;entryX=0;entryY=0.5;entryDx=0;entryDy=0;exitX=1;exitY=0.5;exitDx=0;exitDy=0;" edge="1" parent="fOfSJAuA315CUXJoR_F2-1">
          <mxGeometry y="330" width="50" height="50" as="geometry">
            <mxPoint x="180" y="429.5" as="sourcePoint" />
            <mxPoint x="260" y="429.5" as="targetPoint" />
          </mxGeometry>
        </mxCell>
        <mxCell id="kT5wU6VZecdG8zgLiYxm-105" value="" style="endArrow=classic;html=1;rounded=0;fontSize=36;entryX=0;entryY=0.5;entryDx=0;entryDy=0;exitX=1;exitY=0.5;exitDx=0;exitDy=0;" edge="1" parent="fOfSJAuA315CUXJoR_F2-1">
          <mxGeometry y="330" width="50" height="50" as="geometry">
            <mxPoint x="180" y="349.5" as="sourcePoint" />
            <mxPoint x="260" y="349.5" as="targetPoint" />
          </mxGeometry>
        </mxCell>
        <mxCell id="kT5wU6VZecdG8zgLiYxm-106" value="" style="endArrow=classic;html=1;rounded=0;fontSize=36;exitX=1;exitY=0.5;exitDx=0;exitDy=0;" edge="1" parent="fOfSJAuA315CUXJoR_F2-1" source="kT5wU6VZecdG8zgLiYxm-85">
          <mxGeometry y="330" width="50" height="50" as="geometry">
            <mxPoint x="170" y="390" as="sourcePoint" />
            <mxPoint x="260" y="430" as="targetPoint" />
          </mxGeometry>
        </mxCell>
        <mxCell id="kT5wU6VZecdG8zgLiYxm-107" value="" style="endArrow=classic;html=1;rounded=0;fontSize=36;exitX=1;exitY=0.5;exitDx=0;exitDy=0;" edge="1" parent="fOfSJAuA315CUXJoR_F2-1">
          <mxGeometry y="330" width="50" height="50" as="geometry">
            <mxPoint x="300" y="350" as="sourcePoint" />
            <mxPoint x="380" y="430" as="targetPoint" />
          </mxGeometry>
        </mxCell>
        <mxCell id="kT5wU6VZecdG8zgLiYxm-108" value="" style="endArrow=classic;html=1;rounded=0;fontSize=36;exitX=1;exitY=0.5;exitDx=0;exitDy=0;" edge="1" parent="fOfSJAuA315CUXJoR_F2-1">
          <mxGeometry y="330" width="50" height="50" as="geometry">
            <mxPoint x="180" y="430" as="sourcePoint" />
            <mxPoint x="260" y="510" as="targetPoint" />
          </mxGeometry>
        </mxCell>
        <mxCell id="kT5wU6VZecdG8zgLiYxm-109" value="" style="endArrow=classic;html=1;rounded=0;fontSize=36;exitX=1;exitY=0.5;exitDx=0;exitDy=0;" edge="1" parent="fOfSJAuA315CUXJoR_F2-1">
          <mxGeometry y="330" width="50" height="50" as="geometry">
            <mxPoint x="180" y="510" as="sourcePoint" />
            <mxPoint x="260" y="590" as="targetPoint" />
          </mxGeometry>
        </mxCell>
        <mxCell id="kT5wU6VZecdG8zgLiYxm-110" value="" style="endArrow=classic;html=1;rounded=0;fontSize=36;exitX=1;exitY=0.5;exitDx=0;exitDy=0;" edge="1" parent="fOfSJAuA315CUXJoR_F2-1">
          <mxGeometry y="330" width="50" height="50" as="geometry">
            <mxPoint x="300" y="510" as="sourcePoint" />
            <mxPoint x="380" y="590" as="targetPoint" />
          </mxGeometry>
        </mxCell>
        <mxCell id="kT5wU6VZecdG8zgLiYxm-111" value="" style="endArrow=classic;html=1;rounded=0;fontSize=36;exitX=1;exitY=0.5;exitDx=0;exitDy=0;" edge="1" parent="fOfSJAuA315CUXJoR_F2-1">
          <mxGeometry y="330" width="50" height="50" as="geometry">
            <mxPoint x="300" y="430" as="sourcePoint" />
            <mxPoint x="380" y="510" as="targetPoint" />
          </mxGeometry>
        </mxCell>
        <mxCell id="kT5wU6VZecdG8zgLiYxm-112" value="" style="endArrow=classic;html=1;rounded=0;fontSize=36;exitX=1;exitY=0.5;exitDx=0;exitDy=0;entryX=0;entryY=0.5;entryDx=0;entryDy=0;" edge="1" parent="fOfSJAuA315CUXJoR_F2-1" target="kT5wU6VZecdG8zgLiYxm-97">
          <mxGeometry y="330" width="50" height="50" as="geometry">
            <mxPoint x="420" y="350" as="sourcePoint" />
            <mxPoint x="500" y="430" as="targetPoint" />
          </mxGeometry>
        </mxCell>
        <mxCell id="kT5wU6VZecdG8zgLiYxm-113" value="" style="endArrow=classic;html=1;rounded=0;fontSize=36;startArrow=none;" edge="1" parent="fOfSJAuA315CUXJoR_F2-1">
          <mxGeometry y="330" width="50" height="50" as="geometry">
            <mxPoint x="180" y="350" as="sourcePoint" />
            <mxPoint x="260" y="510" as="targetPoint" />
          </mxGeometry>
        </mxCell>
        <mxCell id="kT5wU6VZecdG8zgLiYxm-114" value="" style="endArrow=classic;html=1;rounded=0;fontSize=36;exitX=1;exitY=0.5;exitDx=0;exitDy=0;" edge="1" parent="fOfSJAuA315CUXJoR_F2-1">
          <mxGeometry y="330" width="50" height="50" as="geometry">
            <mxPoint x="180" y="430" as="sourcePoint" />
            <mxPoint x="260" y="590" as="targetPoint" />
          </mxGeometry>
        </mxCell>
        <mxCell id="kT5wU6VZecdG8zgLiYxm-115" value="" style="endArrow=classic;html=1;rounded=0;fontSize=36;exitX=1;exitY=0.5;exitDx=0;exitDy=0;" edge="1" parent="fOfSJAuA315CUXJoR_F2-1">
          <mxGeometry y="330" width="50" height="50" as="geometry">
            <mxPoint x="300" y="350" as="sourcePoint" />
            <mxPoint x="380" y="510" as="targetPoint" />
          </mxGeometry>
        </mxCell>
        <mxCell id="kT5wU6VZecdG8zgLiYxm-116" value="" style="endArrow=classic;html=1;rounded=0;fontSize=36;exitX=1;exitY=0.5;exitDx=0;exitDy=0;fontStyle=1" edge="1" parent="fOfSJAuA315CUXJoR_F2-1">
          <mxGeometry y="330" width="50" height="50" as="geometry">
            <mxPoint x="300" y="435" as="sourcePoint" />
            <mxPoint x="380" y="595" as="targetPoint" />
          </mxGeometry>
        </mxCell>
        <mxCell id="kT5wU6VZecdG8zgLiYxm-117" value="" style="endArrow=classic;html=1;rounded=0;fontSize=36;exitX=1;exitY=0.5;exitDx=0;exitDy=0;entryX=0;entryY=0.5;entryDx=0;entryDy=0;fontStyle=1" edge="1" parent="fOfSJAuA315CUXJoR_F2-1" target="kT5wU6VZecdG8zgLiYxm-91">
          <mxGeometry y="330" width="50" height="50" as="geometry">
            <mxPoint x="180" y="590" as="sourcePoint" />
            <mxPoint x="260" y="750" as="targetPoint" />
          </mxGeometry>
        </mxCell>
        <mxCell id="kT5wU6VZecdG8zgLiYxm-118" value="" style="endArrow=classic;html=1;rounded=0;fontSize=36;exitX=1;exitY=0.5;exitDx=0;exitDy=0;entryX=0;entryY=0.5;entryDx=0;entryDy=0;" edge="1" parent="fOfSJAuA315CUXJoR_F2-1">
          <mxGeometry y="330" width="50" height="50" as="geometry">
            <mxPoint x="180" y="510" as="sourcePoint" />
            <mxPoint x="260" y="430" as="targetPoint" />
          </mxGeometry>
        </mxCell>
        <mxCell id="kT5wU6VZecdG8zgLiYxm-119" value="" style="endArrow=classic;html=1;rounded=0;fontSize=36;exitX=1;exitY=0.5;exitDx=0;exitDy=0;entryX=0;entryY=0.5;entryDx=0;entryDy=0;" edge="1" parent="fOfSJAuA315CUXJoR_F2-1">
          <mxGeometry y="330" width="50" height="50" as="geometry">
            <mxPoint x="180" y="430" as="sourcePoint" />
            <mxPoint x="260" y="350" as="targetPoint" />
          </mxGeometry>
        </mxCell>
        <mxCell id="kT5wU6VZecdG8zgLiYxm-120" value="" style="endArrow=classic;html=1;rounded=0;fontSize=36;exitX=1;exitY=0.5;exitDx=0;exitDy=0;entryX=0;entryY=0.5;entryDx=0;entryDy=0;" edge="1" parent="fOfSJAuA315CUXJoR_F2-1">
          <mxGeometry y="330" width="50" height="50" as="geometry">
            <mxPoint x="300" y="590" as="sourcePoint" />
            <mxPoint x="380" y="510" as="targetPoint" />
          </mxGeometry>
        </mxCell>
        <mxCell id="kT5wU6VZecdG8zgLiYxm-121" value="" style="endArrow=classic;html=1;rounded=0;fontSize=36;exitX=1;exitY=0.5;exitDx=0;exitDy=0;entryX=0;entryY=0.5;entryDx=0;entryDy=0;" edge="1" parent="fOfSJAuA315CUXJoR_F2-1">
          <mxGeometry y="330" width="50" height="50" as="geometry">
            <mxPoint x="300" y="510" as="sourcePoint" />
            <mxPoint x="380" y="430" as="targetPoint" />
          </mxGeometry>
        </mxCell>
        <mxCell id="kT5wU6VZecdG8zgLiYxm-122" value="" style="endArrow=classic;html=1;rounded=0;fontSize=36;entryX=0;entryY=0.5;entryDx=0;entryDy=0;" edge="1" parent="fOfSJAuA315CUXJoR_F2-1">
          <mxGeometry y="330" width="50" height="50" as="geometry">
            <mxPoint x="300" y="430" as="sourcePoint" />
            <mxPoint x="380" y="355" as="targetPoint" />
          </mxGeometry>
        </mxCell>
        <mxCell id="kT5wU6VZecdG8zgLiYxm-123" value="" style="endArrow=classic;html=1;rounded=0;fontSize=36;exitX=1;exitY=0.5;exitDx=0;exitDy=0;entryX=0;entryY=0.5;entryDx=0;entryDy=0;fontStyle=1" edge="1" parent="fOfSJAuA315CUXJoR_F2-1" source="kT5wU6VZecdG8zgLiYxm-88" target="kT5wU6VZecdG8zgLiYxm-90">
          <mxGeometry y="330" width="50" height="50" as="geometry">
            <mxPoint x="20" y="590" as="sourcePoint" />
            <mxPoint x="100" y="510" as="targetPoint" />
          </mxGeometry>
        </mxCell>
        <mxCell id="kT5wU6VZecdG8zgLiYxm-124" value="" style="endArrow=classic;html=1;rounded=0;fontSize=36;exitX=1;exitY=0.5;exitDx=0;exitDy=0;entryX=0;entryY=0.5;entryDx=0;entryDy=0;fontStyle=1" edge="1" parent="fOfSJAuA315CUXJoR_F2-1">
          <mxGeometry y="330" width="50" height="50" as="geometry">
            <mxPoint x="180" y="510" as="sourcePoint" />
            <mxPoint x="260" y="350" as="targetPoint" />
          </mxGeometry>
        </mxCell>
        <mxCell id="kT5wU6VZecdG8zgLiYxm-125" value="" style="endArrow=classic;html=1;rounded=0;fontSize=36;exitX=1;exitY=0.5;exitDx=0;exitDy=0;entryX=0;entryY=0.5;entryDx=0;entryDy=0;fontStyle=1" edge="1" parent="fOfSJAuA315CUXJoR_F2-1">
          <mxGeometry y="330" width="50" height="50" as="geometry">
            <mxPoint x="300" y="590" as="sourcePoint" />
            <mxPoint x="380" y="430" as="targetPoint" />
          </mxGeometry>
        </mxCell>
        <mxCell id="kT5wU6VZecdG8zgLiYxm-126" value="" style="endArrow=classic;html=1;rounded=0;fontSize=36;exitX=1;exitY=0.5;exitDx=0;exitDy=0;entryX=0;entryY=0.5;entryDx=0;entryDy=0;fontStyle=1" edge="1" parent="fOfSJAuA315CUXJoR_F2-1">
          <mxGeometry y="330" width="50" height="50" as="geometry">
            <mxPoint x="300" y="510" as="sourcePoint" />
            <mxPoint x="380" y="350" as="targetPoint" />
          </mxGeometry>
        </mxCell>
        <mxCell id="kT5wU6VZecdG8zgLiYxm-127" value="" style="endArrow=classic;html=1;rounded=0;fontSize=36;exitX=1;exitY=0.5;exitDx=0;exitDy=0;entryX=0;entryY=0.5;entryDx=0;entryDy=0;" edge="1" parent="fOfSJAuA315CUXJoR_F2-1" source="kT5wU6VZecdG8zgLiYxm-94" target="kT5wU6VZecdG8zgLiYxm-97">
          <mxGeometry y="330" width="50" height="50" as="geometry">
            <mxPoint x="460" y="520" as="sourcePoint" />
            <mxPoint x="540" y="640" as="targetPoint" />
          </mxGeometry>
        </mxCell>
        <mxCell id="kT5wU6VZecdG8zgLiYxm-128" value="" style="endArrow=classic;html=1;rounded=0;fontSize=36;exitX=1;exitY=0.5;exitDx=0;exitDy=0;entryX=0;entryY=0.5;entryDx=0;entryDy=0;" edge="1" parent="fOfSJAuA315CUXJoR_F2-1" source="kT5wU6VZecdG8zgLiYxm-96" target="kT5wU6VZecdG8zgLiYxm-97">
          <mxGeometry y="330" width="50" height="50" as="geometry">
            <mxPoint x="440" y="370" as="sourcePoint" />
            <mxPoint x="520" y="490" as="targetPoint" />
          </mxGeometry>
        </mxCell>
        <mxCell id="kT5wU6VZecdG8zgLiYxm-129" value="" style="endArrow=classic;html=1;rounded=0;fontSize=36;exitX=1;exitY=0.5;exitDx=0;exitDy=0;entryX=0;entryY=0.5;entryDx=0;entryDy=0;" edge="1" parent="fOfSJAuA315CUXJoR_F2-1" source="kT5wU6VZecdG8zgLiYxm-95" target="kT5wU6VZecdG8zgLiYxm-97">
          <mxGeometry y="330" width="50" height="50" as="geometry">
            <mxPoint x="420" y="510" as="sourcePoint" />
            <mxPoint x="500" y="390" as="targetPoint" />
          </mxGeometry>
        </mxCell>
        <mxCell id="kT5wU6VZecdG8zgLiYxm-130" value="\(h^{[1]}_1\)" style="text;html=1;strokeColor=none;fillColor=none;align=center;verticalAlign=middle;whiteSpace=wrap;rounded=0;fontSize=16;" vertex="1" parent="fOfSJAuA315CUXJoR_F2-1">
          <mxGeometry x="115" y="335" width="90" height="30" as="geometry" />
        </mxCell>
        <mxCell id="kT5wU6VZecdG8zgLiYxm-131" value="" style="endArrow=none;html=1;rounded=0;fontSize=36;exitX=1;exitY=0.5;exitDx=0;exitDy=0;" edge="1" parent="fOfSJAuA315CUXJoR_F2-1" source="kT5wU6VZecdG8zgLiYxm-85" target="kT5wU6VZecdG8zgLiYxm-130">
          <mxGeometry y="330" width="50" height="50" as="geometry">
            <mxPoint x="180" y="350" as="sourcePoint" />
            <mxPoint x="260.0000000000001" y="510" as="targetPoint" />
          </mxGeometry>
        </mxCell>
        <mxCell id="kT5wU6VZecdG8zgLiYxm-132" value="\(h^{[1]}_2\)" style="text;html=1;strokeColor=none;fillColor=none;align=center;verticalAlign=middle;whiteSpace=wrap;rounded=0;fontSize=16;" vertex="1" parent="fOfSJAuA315CUXJoR_F2-1">
          <mxGeometry x="115" y="415" width="90" height="30" as="geometry" />
        </mxCell>
        <mxCell id="kT5wU6VZecdG8zgLiYxm-133" value="\(h^{[1]}_3\)" style="text;html=1;strokeColor=none;fillColor=none;align=center;verticalAlign=middle;whiteSpace=wrap;rounded=0;fontSize=16;" vertex="1" parent="fOfSJAuA315CUXJoR_F2-1">
          <mxGeometry x="115" y="495" width="90" height="30" as="geometry" />
        </mxCell>
        <mxCell id="kT5wU6VZecdG8zgLiYxm-134" value="\(h^{[1]}_4\)" style="text;html=1;strokeColor=none;fillColor=none;align=center;verticalAlign=middle;whiteSpace=wrap;rounded=0;fontSize=16;" vertex="1" parent="fOfSJAuA315CUXJoR_F2-1">
          <mxGeometry x="115" y="575" width="90" height="30" as="geometry" />
        </mxCell>
        <mxCell id="kT5wU6VZecdG8zgLiYxm-135" value="\(h^{[2]}_4\)" style="text;html=1;strokeColor=none;fillColor=none;align=center;verticalAlign=middle;whiteSpace=wrap;rounded=0;fontSize=16;" vertex="1" parent="fOfSJAuA315CUXJoR_F2-1">
          <mxGeometry x="235" y="575" width="90" height="30" as="geometry" />
        </mxCell>
        <mxCell id="kT5wU6VZecdG8zgLiYxm-136" value="\(h^{[2]}_3\)" style="text;html=1;strokeColor=none;fillColor=none;align=center;verticalAlign=middle;whiteSpace=wrap;rounded=0;fontSize=16;" vertex="1" parent="fOfSJAuA315CUXJoR_F2-1">
          <mxGeometry x="235" y="495" width="90" height="30" as="geometry" />
        </mxCell>
        <mxCell id="kT5wU6VZecdG8zgLiYxm-137" value="\(h^{[2]}_2\)" style="text;html=1;strokeColor=none;fillColor=none;align=center;verticalAlign=middle;whiteSpace=wrap;rounded=0;fontSize=16;" vertex="1" parent="fOfSJAuA315CUXJoR_F2-1">
          <mxGeometry x="235" y="415" width="90" height="30" as="geometry" />
        </mxCell>
        <mxCell id="kT5wU6VZecdG8zgLiYxm-138" value="\(h^{[2]}_1\)" style="text;html=1;strokeColor=none;fillColor=none;align=center;verticalAlign=middle;whiteSpace=wrap;rounded=0;fontSize=16;" vertex="1" parent="fOfSJAuA315CUXJoR_F2-1">
          <mxGeometry x="235" y="335" width="90" height="30" as="geometry" />
        </mxCell>
        <mxCell id="kT5wU6VZecdG8zgLiYxm-139" value="\(h^{[3]}_1\)" style="text;html=1;strokeColor=none;fillColor=none;align=center;verticalAlign=middle;whiteSpace=wrap;rounded=0;fontSize=16;" vertex="1" parent="fOfSJAuA315CUXJoR_F2-1">
          <mxGeometry x="355" y="335" width="90" height="30" as="geometry" />
        </mxCell>
        <mxCell id="kT5wU6VZecdG8zgLiYxm-140" value="\(h^{[3]}_2\)" style="text;html=1;strokeColor=none;fillColor=none;align=center;verticalAlign=middle;whiteSpace=wrap;rounded=0;fontSize=16;" vertex="1" parent="fOfSJAuA315CUXJoR_F2-1">
          <mxGeometry x="355" y="415" width="90" height="30" as="geometry" />
        </mxCell>
        <mxCell id="kT5wU6VZecdG8zgLiYxm-141" value="\(h^{[3]}_3\)" style="text;html=1;strokeColor=none;fillColor=none;align=center;verticalAlign=middle;whiteSpace=wrap;rounded=0;fontSize=16;" vertex="1" parent="fOfSJAuA315CUXJoR_F2-1">
          <mxGeometry x="355" y="495" width="90" height="30" as="geometry" />
        </mxCell>
        <mxCell id="kT5wU6VZecdG8zgLiYxm-142" value="\(h^{[3]}_4\)" style="text;html=1;strokeColor=none;fillColor=none;align=center;verticalAlign=middle;whiteSpace=wrap;rounded=0;fontSize=16;" vertex="1" parent="fOfSJAuA315CUXJoR_F2-1">
          <mxGeometry x="355" y="575" width="90" height="30" as="geometry" />
        </mxCell>
        <mxCell id="kT5wU6VZecdG8zgLiYxm-143" value="\(y\)" style="text;html=1;strokeColor=none;fillColor=none;align=center;verticalAlign=middle;whiteSpace=wrap;rounded=0;fontSize=16;" vertex="1" parent="fOfSJAuA315CUXJoR_F2-1">
          <mxGeometry x="475" y="455" width="90" height="30" as="geometry" />
        </mxCell>
        <mxCell id="kT5wU6VZecdG8zgLiYxm-144" value="" style="endArrow=classic;html=1;rounded=0;fontSize=16;entryX=0.278;entryY=0.5;entryDx=0;entryDy=0;entryPerimeter=0;" edge="1" parent="fOfSJAuA315CUXJoR_F2-1" target="kT5wU6VZecdG8zgLiYxm-130">
          <mxGeometry y="330" width="50" height="50" as="geometry">
            <mxPoint x="60" y="390" as="sourcePoint" />
            <mxPoint x="110" y="340" as="targetPoint" />
          </mxGeometry>
        </mxCell>
        <mxCell id="kT5wU6VZecdG8zgLiYxm-145" value="" style="endArrow=classic;html=1;rounded=0;fontSize=16;entryX=0.278;entryY=0.5;entryDx=0;entryDy=0;entryPerimeter=0;" edge="1" parent="fOfSJAuA315CUXJoR_F2-1">
          <mxGeometry y="330" width="50" height="50" as="geometry">
            <mxPoint x="60" y="470" as="sourcePoint" />
            <mxPoint x="140.00000000000009" y="430" as="targetPoint" />
          </mxGeometry>
        </mxCell>
        <mxCell id="kT5wU6VZecdG8zgLiYxm-146" value="" style="endArrow=classic;html=1;rounded=0;fontSize=16;entryX=0.278;entryY=0.5;entryDx=0;entryDy=0;entryPerimeter=0;exitX=1;exitY=0.5;exitDx=0;exitDy=0;" edge="1" parent="fOfSJAuA315CUXJoR_F2-1">
          <mxGeometry y="330" width="50" height="50" as="geometry">
            <mxPoint x="60" y="550" as="sourcePoint" />
            <mxPoint x="140" y="510" as="targetPoint" />
          </mxGeometry>
        </mxCell>
        <mxCell id="kT5wU6VZecdG8zgLiYxm-147" value="" style="endArrow=classic;html=1;rounded=0;fontSize=16;entryX=0.278;entryY=0.5;entryDx=0;entryDy=0;entryPerimeter=0;exitX=1;exitY=0.5;exitDx=0;exitDy=0;" edge="1" parent="fOfSJAuA315CUXJoR_F2-1" target="kT5wU6VZecdG8zgLiYxm-134">
          <mxGeometry y="330" width="50" height="50" as="geometry">
            <mxPoint x="60" y="550" as="sourcePoint" />
            <mxPoint x="100" y="575" as="targetPoint" />
          </mxGeometry>
        </mxCell>
        <mxCell id="kT5wU6VZecdG8zgLiYxm-148" value="" style="endArrow=classic;html=1;rounded=0;fontSize=16;entryX=0.278;entryY=0.5;entryDx=0;entryDy=0;entryPerimeter=0;exitX=1;exitY=0.5;exitDx=0;exitDy=0;" edge="1" parent="fOfSJAuA315CUXJoR_F2-1">
          <mxGeometry y="330" width="50" height="50" as="geometry">
            <mxPoint x="59.97999999999999" y="470" as="sourcePoint" />
            <mxPoint x="140.00000000000009" y="510" as="targetPoint" />
          </mxGeometry>
        </mxCell>
        <mxCell id="kT5wU6VZecdG8zgLiYxm-149" value="" style="endArrow=classic;html=1;rounded=0;fontSize=16;entryX=0.278;entryY=0.5;entryDx=0;entryDy=0;entryPerimeter=0;exitX=1;exitY=0.5;exitDx=0;exitDy=0;" edge="1" parent="fOfSJAuA315CUXJoR_F2-1">
          <mxGeometry y="330" width="50" height="50" as="geometry">
            <mxPoint x="60.00000000000003" y="390" as="sourcePoint" />
            <mxPoint x="140.02" y="430" as="targetPoint" />
          </mxGeometry>
        </mxCell>
        <mxCell id="kT5wU6VZecdG8zgLiYxm-150" value="" style="endArrow=classic;html=1;rounded=0;fontSize=16;exitX=1;exitY=0.5;exitDx=0;exitDy=0;" edge="1" parent="fOfSJAuA315CUXJoR_F2-1">
          <mxGeometry y="330" width="50" height="50" as="geometry">
            <mxPoint x="59.97999999999999" y="390" as="sourcePoint" />
            <mxPoint x="140" y="510" as="targetPoint" />
          </mxGeometry>
        </mxCell>
        <mxCell id="kT5wU6VZecdG8zgLiYxm-151" value="" style="endArrow=classic;html=1;rounded=0;fontSize=16;exitX=1;exitY=0.5;exitDx=0;exitDy=0;" edge="1" parent="fOfSJAuA315CUXJoR_F2-1">
          <mxGeometry y="330" width="50" height="50" as="geometry">
            <mxPoint x="59.98000000000002" y="470" as="sourcePoint" />
            <mxPoint x="140" y="590" as="targetPoint" />
          </mxGeometry>
        </mxCell>
        <mxCell id="kT5wU6VZecdG8zgLiYxm-152" value="" style="endArrow=classic;html=1;rounded=0;fontSize=16;exitX=1;exitY=0.5;exitDx=0;exitDy=0;" edge="1" parent="fOfSJAuA315CUXJoR_F2-1">
          <mxGeometry y="330" width="50" height="50" as="geometry">
            <mxPoint x="60.00000000000003" y="550" as="sourcePoint" />
            <mxPoint x="140" y="430" as="targetPoint" />
          </mxGeometry>
        </mxCell>
        <mxCell id="kT5wU6VZecdG8zgLiYxm-153" value="" style="endArrow=classic;html=1;rounded=0;fontSize=16;exitX=1;exitY=0.5;exitDx=0;exitDy=0;" edge="1" parent="fOfSJAuA315CUXJoR_F2-1">
          <mxGeometry y="330" width="50" height="50" as="geometry">
            <mxPoint x="59.98000000000002" y="470" as="sourcePoint" />
            <mxPoint x="140" y="350" as="targetPoint" />
          </mxGeometry>
        </mxCell>
        <mxCell id="kT5wU6VZecdG8zgLiYxm-154" value="" style="endArrow=classic;html=1;rounded=0;fontSize=16;" edge="1" parent="fOfSJAuA315CUXJoR_F2-1">
          <mxGeometry y="330" width="50" height="50" as="geometry">
            <mxPoint x="60" y="550" as="sourcePoint" />
            <mxPoint x="140" y="350" as="targetPoint" />
          </mxGeometry>
        </mxCell>
        <mxCell id="kT5wU6VZecdG8zgLiYxm-155" value="" style="endArrow=classic;html=1;rounded=0;fontSize=16;" edge="1" parent="fOfSJAuA315CUXJoR_F2-1">
          <mxGeometry y="330" width="50" height="50" as="geometry">
            <mxPoint x="60" y="390" as="sourcePoint" />
            <mxPoint x="140" y="590" as="targetPoint" />
          </mxGeometry>
        </mxCell>
        <mxCell id="kT5wU6VZecdG8zgLiYxm-156" value="\(x_1\)" style="text;html=1;strokeColor=none;fillColor=none;align=center;verticalAlign=middle;whiteSpace=wrap;rounded=0;fontSize=16;" vertex="1" parent="fOfSJAuA315CUXJoR_F2-1">
          <mxGeometry y="370" width="90" height="30" as="geometry" />
        </mxCell>
        <mxCell id="kT5wU6VZecdG8zgLiYxm-157" value="\(x_2\)" style="text;html=1;strokeColor=none;fillColor=none;align=center;verticalAlign=middle;whiteSpace=wrap;rounded=0;fontSize=16;" vertex="1" parent="fOfSJAuA315CUXJoR_F2-1">
          <mxGeometry y="455" width="90" height="30" as="geometry" />
        </mxCell>
        <mxCell id="kT5wU6VZecdG8zgLiYxm-158" value="\(x_3\)" style="text;html=1;strokeColor=none;fillColor=none;align=center;verticalAlign=middle;whiteSpace=wrap;rounded=0;fontSize=16;" vertex="1" parent="fOfSJAuA315CUXJoR_F2-1">
          <mxGeometry y="530" width="90" height="30" as="geometry" />
        </mxCell>
        <mxCell id="kT5wU6VZecdG8zgLiYxm-2" value="" style="ellipse;whiteSpace=wrap;html=1;aspect=fixed;fontSize=36;" vertex="1" parent="fOfSJAuA315CUXJoR_F2-1">
          <mxGeometry x="670" y="330" width="40" height="40" as="geometry" />
        </mxCell>
        <mxCell id="kT5wU6VZecdG8zgLiYxm-3" value="" style="ellipse;whiteSpace=wrap;html=1;aspect=fixed;fontSize=36;" vertex="1" parent="fOfSJAuA315CUXJoR_F2-1">
          <mxGeometry x="670" y="410" width="40" height="40" as="geometry" />
        </mxCell>
        <mxCell id="kT5wU6VZecdG8zgLiYxm-4" value="" style="ellipse;whiteSpace=wrap;html=1;aspect=fixed;fontSize=36;" vertex="1" parent="fOfSJAuA315CUXJoR_F2-1">
          <mxGeometry x="670" y="490" width="40" height="40" as="geometry" />
        </mxCell>
        <mxCell id="kT5wU6VZecdG8zgLiYxm-5" value="" style="ellipse;whiteSpace=wrap;html=1;aspect=fixed;fontSize=36;" vertex="1" parent="fOfSJAuA315CUXJoR_F2-1">
          <mxGeometry x="670" y="570" width="40" height="40" as="geometry" />
        </mxCell>
        <mxCell id="kT5wU6VZecdG8zgLiYxm-6" value="" style="ellipse;whiteSpace=wrap;html=1;aspect=fixed;fontSize=36;" vertex="1" parent="fOfSJAuA315CUXJoR_F2-1">
          <mxGeometry x="790" y="330" width="40" height="40" as="geometry" />
        </mxCell>
        <mxCell id="kT5wU6VZecdG8zgLiYxm-7" value="" style="ellipse;whiteSpace=wrap;html=1;aspect=fixed;fontSize=36;" vertex="1" parent="fOfSJAuA315CUXJoR_F2-1">
          <mxGeometry x="790" y="410" width="40" height="40" as="geometry" />
        </mxCell>
        <mxCell id="kT5wU6VZecdG8zgLiYxm-8" value="" style="ellipse;whiteSpace=wrap;html=1;aspect=fixed;fontSize=36;" vertex="1" parent="fOfSJAuA315CUXJoR_F2-1">
          <mxGeometry x="790" y="490" width="40" height="40" as="geometry" />
        </mxCell>
        <mxCell id="kT5wU6VZecdG8zgLiYxm-9" value="" style="ellipse;whiteSpace=wrap;html=1;aspect=fixed;fontSize=36;" vertex="1" parent="fOfSJAuA315CUXJoR_F2-1">
          <mxGeometry x="790" y="570" width="40" height="40" as="geometry" />
        </mxCell>
        <mxCell id="kT5wU6VZecdG8zgLiYxm-10" value="" style="ellipse;whiteSpace=wrap;html=1;aspect=fixed;fontSize=36;" vertex="1" parent="fOfSJAuA315CUXJoR_F2-1">
          <mxGeometry x="910" y="330" width="40" height="40" as="geometry" />
        </mxCell>
        <mxCell id="kT5wU6VZecdG8zgLiYxm-11" value="" style="ellipse;whiteSpace=wrap;html=1;aspect=fixed;fontSize=36;" vertex="1" parent="fOfSJAuA315CUXJoR_F2-1">
          <mxGeometry x="910" y="410" width="40" height="40" as="geometry" />
        </mxCell>
        <mxCell id="kT5wU6VZecdG8zgLiYxm-12" value="" style="ellipse;whiteSpace=wrap;html=1;aspect=fixed;fontSize=36;" vertex="1" parent="fOfSJAuA315CUXJoR_F2-1">
          <mxGeometry x="910" y="490" width="40" height="40" as="geometry" />
        </mxCell>
        <mxCell id="kT5wU6VZecdG8zgLiYxm-13" value="" style="ellipse;whiteSpace=wrap;html=1;aspect=fixed;fontSize=36;" vertex="1" parent="fOfSJAuA315CUXJoR_F2-1">
          <mxGeometry x="910" y="570" width="40" height="40" as="geometry" />
        </mxCell>
        <mxCell id="kT5wU6VZecdG8zgLiYxm-14" value="" style="ellipse;whiteSpace=wrap;html=1;aspect=fixed;fontSize=36;" vertex="1" parent="fOfSJAuA315CUXJoR_F2-1">
          <mxGeometry x="1030" y="450" width="40" height="40" as="geometry" />
        </mxCell>
        <mxCell id="kT5wU6VZecdG8zgLiYxm-16" value="" style="endArrow=classic;html=1;rounded=0;fontSize=36;entryX=0;entryY=0.5;entryDx=0;entryDy=0;exitX=1;exitY=0.5;exitDx=0;exitDy=0;" edge="1" parent="fOfSJAuA315CUXJoR_F2-1" source="kT5wU6VZecdG8zgLiYxm-7" target="kT5wU6VZecdG8zgLiYxm-11">
          <mxGeometry x="530" y="330" width="50" height="50" as="geometry">
            <mxPoint x="830" y="450" as="sourcePoint" />
            <mxPoint x="880" y="400" as="targetPoint" />
          </mxGeometry>
        </mxCell>
        <mxCell id="kT5wU6VZecdG8zgLiYxm-20" value="" style="endArrow=classic;html=1;rounded=0;fontSize=36;entryX=0;entryY=0.5;entryDx=0;entryDy=0;exitX=1;exitY=0.5;exitDx=0;exitDy=0;" edge="1" parent="fOfSJAuA315CUXJoR_F2-1">
          <mxGeometry x="530" y="330" width="50" height="50" as="geometry">
            <mxPoint x="710" y="509.5" as="sourcePoint" />
            <mxPoint x="790" y="509.5" as="targetPoint" />
          </mxGeometry>
        </mxCell>
        <mxCell id="kT5wU6VZecdG8zgLiYxm-24" value="" style="endArrow=classic;html=1;rounded=0;fontSize=36;exitX=1;exitY=0.5;exitDx=0;exitDy=0;" edge="1" parent="fOfSJAuA315CUXJoR_F2-1" source="kT5wU6VZecdG8zgLiYxm-2">
          <mxGeometry x="530" y="330" width="50" height="50" as="geometry">
            <mxPoint x="700" y="390" as="sourcePoint" />
            <mxPoint x="790" y="430" as="targetPoint" />
          </mxGeometry>
        </mxCell>
        <mxCell id="kT5wU6VZecdG8zgLiYxm-28" value="" style="endArrow=classic;html=1;rounded=0;fontSize=36;exitX=1;exitY=0.5;exitDx=0;exitDy=0;" edge="1" parent="fOfSJAuA315CUXJoR_F2-1">
          <mxGeometry x="530" y="330" width="50" height="50" as="geometry">
            <mxPoint x="830" y="510" as="sourcePoint" />
            <mxPoint x="910" y="590" as="targetPoint" />
          </mxGeometry>
        </mxCell>
        <mxCell id="kT5wU6VZecdG8zgLiYxm-31" value="" style="endArrow=classic;html=1;rounded=0;fontSize=36;startArrow=none;" edge="1" parent="fOfSJAuA315CUXJoR_F2-1">
          <mxGeometry x="530" y="330" width="50" height="50" as="geometry">
            <mxPoint x="710" y="350" as="sourcePoint" />
            <mxPoint x="790" y="510" as="targetPoint" />
          </mxGeometry>
        </mxCell>
        <mxCell id="kT5wU6VZecdG8zgLiYxm-34" value="" style="endArrow=classic;html=1;rounded=0;fontSize=36;exitX=1;exitY=0.5;exitDx=0;exitDy=0;fontStyle=1" edge="1" parent="fOfSJAuA315CUXJoR_F2-1">
          <mxGeometry x="530" y="330" width="50" height="50" as="geometry">
            <mxPoint x="830" y="435" as="sourcePoint" />
            <mxPoint x="910" y="595" as="targetPoint" />
          </mxGeometry>
        </mxCell>
        <mxCell id="kT5wU6VZecdG8zgLiYxm-36" value="" style="endArrow=classic;html=1;rounded=0;fontSize=36;exitX=1;exitY=0.5;exitDx=0;exitDy=0;entryX=0;entryY=0.5;entryDx=0;entryDy=0;" edge="1" parent="fOfSJAuA315CUXJoR_F2-1">
          <mxGeometry x="530" y="330" width="50" height="50" as="geometry">
            <mxPoint x="710" y="510" as="sourcePoint" />
            <mxPoint x="790" y="430" as="targetPoint" />
          </mxGeometry>
        </mxCell>
        <mxCell id="kT5wU6VZecdG8zgLiYxm-39" value="" style="endArrow=classic;html=1;rounded=0;fontSize=36;exitX=1;exitY=0.5;exitDx=0;exitDy=0;entryX=0;entryY=0.5;entryDx=0;entryDy=0;" edge="1" parent="fOfSJAuA315CUXJoR_F2-1">
          <mxGeometry x="530" y="330" width="50" height="50" as="geometry">
            <mxPoint x="830" y="510" as="sourcePoint" />
            <mxPoint x="910" y="430" as="targetPoint" />
          </mxGeometry>
        </mxCell>
        <mxCell id="kT5wU6VZecdG8zgLiYxm-45" value="" style="endArrow=classic;html=1;rounded=0;fontSize=36;exitX=1;exitY=0.5;exitDx=0;exitDy=0;entryX=0;entryY=0.5;entryDx=0;entryDy=0;" edge="1" parent="fOfSJAuA315CUXJoR_F2-1" source="kT5wU6VZecdG8zgLiYxm-11" target="kT5wU6VZecdG8zgLiYxm-14">
          <mxGeometry x="530" y="330" width="50" height="50" as="geometry">
            <mxPoint x="990" y="520" as="sourcePoint" />
            <mxPoint x="1070" y="640" as="targetPoint" />
          </mxGeometry>
        </mxCell>
        <mxCell id="kT5wU6VZecdG8zgLiYxm-46" value="" style="endArrow=classic;html=1;rounded=0;fontSize=36;exitX=1;exitY=0.5;exitDx=0;exitDy=0;entryX=0;entryY=0.5;entryDx=0;entryDy=0;" edge="1" parent="fOfSJAuA315CUXJoR_F2-1" source="kT5wU6VZecdG8zgLiYxm-13" target="kT5wU6VZecdG8zgLiYxm-14">
          <mxGeometry x="530" y="330" width="50" height="50" as="geometry">
            <mxPoint x="970" y="370" as="sourcePoint" />
            <mxPoint x="1050" y="490" as="targetPoint" />
          </mxGeometry>
        </mxCell>
        <mxCell id="kT5wU6VZecdG8zgLiYxm-48" value="\(h^{[1]}_1\)" style="text;html=1;strokeColor=none;fillColor=none;align=center;verticalAlign=middle;whiteSpace=wrap;rounded=0;fontSize=16;" vertex="1" parent="fOfSJAuA315CUXJoR_F2-1">
          <mxGeometry x="645" y="335" width="90" height="30" as="geometry" />
        </mxCell>
        <mxCell id="kT5wU6VZecdG8zgLiYxm-49" value="" style="endArrow=none;html=1;rounded=0;fontSize=36;exitX=1;exitY=0.5;exitDx=0;exitDy=0;" edge="1" parent="fOfSJAuA315CUXJoR_F2-1" source="kT5wU6VZecdG8zgLiYxm-2">
          <mxGeometry x="530" y="330" width="50" height="50" as="geometry">
            <mxPoint x="710" y="350" as="sourcePoint" />
            <mxPoint x="710" y="350" as="targetPoint" />
          </mxGeometry>
        </mxCell>
        <mxCell id="kT5wU6VZecdG8zgLiYxm-50" value="\(h^{[1]}_2\)" style="text;html=1;strokeColor=none;fillColor=none;align=center;verticalAlign=middle;whiteSpace=wrap;rounded=0;fontSize=16;" vertex="1" parent="fOfSJAuA315CUXJoR_F2-1">
          <mxGeometry x="645" y="415" width="90" height="30" as="geometry" />
        </mxCell>
        <mxCell id="kT5wU6VZecdG8zgLiYxm-51" value="\(h^{[1]}_3\)" style="text;html=1;strokeColor=none;fillColor=none;align=center;verticalAlign=middle;whiteSpace=wrap;rounded=0;fontSize=16;" vertex="1" parent="fOfSJAuA315CUXJoR_F2-1">
          <mxGeometry x="645" y="495" width="90" height="30" as="geometry" />
        </mxCell>
        <mxCell id="kT5wU6VZecdG8zgLiYxm-52" value="\(h^{[1]}_4\)" style="text;html=1;strokeColor=none;fillColor=none;align=center;verticalAlign=middle;whiteSpace=wrap;rounded=0;fontSize=16;" vertex="1" parent="fOfSJAuA315CUXJoR_F2-1">
          <mxGeometry x="645" y="575" width="90" height="30" as="geometry" />
        </mxCell>
        <mxCell id="kT5wU6VZecdG8zgLiYxm-53" value="\(h^{[2]}_4\)" style="text;html=1;strokeColor=none;fillColor=none;align=center;verticalAlign=middle;whiteSpace=wrap;rounded=0;fontSize=16;" vertex="1" parent="fOfSJAuA315CUXJoR_F2-1">
          <mxGeometry x="765" y="575" width="90" height="30" as="geometry" />
        </mxCell>
        <mxCell id="kT5wU6VZecdG8zgLiYxm-54" value="\(h^{[2]}_3\)" style="text;html=1;strokeColor=none;fillColor=none;align=center;verticalAlign=middle;whiteSpace=wrap;rounded=0;fontSize=16;" vertex="1" parent="fOfSJAuA315CUXJoR_F2-1">
          <mxGeometry x="765" y="495" width="90" height="30" as="geometry" />
        </mxCell>
        <mxCell id="kT5wU6VZecdG8zgLiYxm-55" value="\(h^{[2]}_2\)" style="text;html=1;strokeColor=none;fillColor=none;align=center;verticalAlign=middle;whiteSpace=wrap;rounded=0;fontSize=16;" vertex="1" parent="fOfSJAuA315CUXJoR_F2-1">
          <mxGeometry x="765" y="415" width="90" height="30" as="geometry" />
        </mxCell>
        <mxCell id="kT5wU6VZecdG8zgLiYxm-56" value="\(h^{[2]}_1\)" style="text;html=1;strokeColor=none;fillColor=none;align=center;verticalAlign=middle;whiteSpace=wrap;rounded=0;fontSize=16;" vertex="1" parent="fOfSJAuA315CUXJoR_F2-1">
          <mxGeometry x="765" y="335" width="90" height="30" as="geometry" />
        </mxCell>
        <mxCell id="kT5wU6VZecdG8zgLiYxm-57" value="\(h^{[3]}_1\)" style="text;html=1;strokeColor=none;fillColor=none;align=center;verticalAlign=middle;whiteSpace=wrap;rounded=0;fontSize=16;" vertex="1" parent="fOfSJAuA315CUXJoR_F2-1">
          <mxGeometry x="885" y="335" width="90" height="30" as="geometry" />
        </mxCell>
        <mxCell id="kT5wU6VZecdG8zgLiYxm-58" value="\(h^{[3]}_2\)" style="text;html=1;strokeColor=none;fillColor=none;align=center;verticalAlign=middle;whiteSpace=wrap;rounded=0;fontSize=16;" vertex="1" parent="fOfSJAuA315CUXJoR_F2-1">
          <mxGeometry x="885" y="415" width="90" height="30" as="geometry" />
        </mxCell>
        <mxCell id="kT5wU6VZecdG8zgLiYxm-59" value="\(h^{[3]}_3\)" style="text;html=1;strokeColor=none;fillColor=none;align=center;verticalAlign=middle;whiteSpace=wrap;rounded=0;fontSize=16;" vertex="1" parent="fOfSJAuA315CUXJoR_F2-1">
          <mxGeometry x="885" y="495" width="90" height="30" as="geometry" />
        </mxCell>
        <mxCell id="kT5wU6VZecdG8zgLiYxm-60" value="\(h^{[3]}_4\)" style="text;html=1;strokeColor=none;fillColor=none;align=center;verticalAlign=middle;whiteSpace=wrap;rounded=0;fontSize=16;" vertex="1" parent="fOfSJAuA315CUXJoR_F2-1">
          <mxGeometry x="885" y="575" width="90" height="30" as="geometry" />
        </mxCell>
        <mxCell id="kT5wU6VZecdG8zgLiYxm-61" value="\(y\)" style="text;html=1;strokeColor=none;fillColor=none;align=center;verticalAlign=middle;whiteSpace=wrap;rounded=0;fontSize=16;" vertex="1" parent="fOfSJAuA315CUXJoR_F2-1">
          <mxGeometry x="1005" y="455" width="90" height="30" as="geometry" />
        </mxCell>
        <mxCell id="kT5wU6VZecdG8zgLiYxm-66" value="" style="endArrow=classic;html=1;rounded=0;fontSize=16;entryX=0.278;entryY=0.5;entryDx=0;entryDy=0;entryPerimeter=0;" edge="1" parent="fOfSJAuA315CUXJoR_F2-1" target="kT5wU6VZecdG8zgLiYxm-48">
          <mxGeometry x="530" y="330" width="50" height="50" as="geometry">
            <mxPoint x="590" y="390" as="sourcePoint" />
            <mxPoint x="640" y="340" as="targetPoint" />
          </mxGeometry>
        </mxCell>
        <mxCell id="kT5wU6VZecdG8zgLiYxm-69" value="" style="endArrow=classic;html=1;rounded=0;fontSize=16;entryX=0.278;entryY=0.5;entryDx=0;entryDy=0;entryPerimeter=0;exitX=1;exitY=0.5;exitDx=0;exitDy=0;" edge="1" parent="fOfSJAuA315CUXJoR_F2-1">
          <mxGeometry x="530" y="330" width="50" height="50" as="geometry">
            <mxPoint x="590" y="550" as="sourcePoint" />
            <mxPoint x="670" y="510" as="targetPoint" />
          </mxGeometry>
        </mxCell>
        <mxCell id="kT5wU6VZecdG8zgLiYxm-72" value="" style="endArrow=classic;html=1;rounded=0;fontSize=16;entryX=0.278;entryY=0.5;entryDx=0;entryDy=0;entryPerimeter=0;exitX=1;exitY=0.5;exitDx=0;exitDy=0;" edge="1" parent="fOfSJAuA315CUXJoR_F2-1">
          <mxGeometry x="530" y="330" width="50" height="50" as="geometry">
            <mxPoint x="589.98" y="470" as="sourcePoint" />
            <mxPoint x="670.0000000000001" y="510" as="targetPoint" />
          </mxGeometry>
        </mxCell>
        <mxCell id="kT5wU6VZecdG8zgLiYxm-74" value="" style="endArrow=classic;html=1;rounded=0;fontSize=16;exitX=1;exitY=0.5;exitDx=0;exitDy=0;" edge="1" parent="fOfSJAuA315CUXJoR_F2-1">
          <mxGeometry x="530" y="330" width="50" height="50" as="geometry">
            <mxPoint x="589.98" y="390" as="sourcePoint" />
            <mxPoint x="670" y="510" as="targetPoint" />
          </mxGeometry>
        </mxCell>
        <mxCell id="kT5wU6VZecdG8zgLiYxm-77" value="" style="endArrow=classic;html=1;rounded=0;fontSize=16;exitX=1;exitY=0.5;exitDx=0;exitDy=0;" edge="1" parent="fOfSJAuA315CUXJoR_F2-1">
          <mxGeometry x="530" y="330" width="50" height="50" as="geometry">
            <mxPoint x="589.98" y="470" as="sourcePoint" />
            <mxPoint x="670" y="350" as="targetPoint" />
          </mxGeometry>
        </mxCell>
        <mxCell id="kT5wU6VZecdG8zgLiYxm-78" value="" style="endArrow=classic;html=1;rounded=0;fontSize=16;" edge="1" parent="fOfSJAuA315CUXJoR_F2-1">
          <mxGeometry x="530" y="330" width="50" height="50" as="geometry">
            <mxPoint x="590" y="550" as="sourcePoint" />
            <mxPoint x="670" y="350" as="targetPoint" />
          </mxGeometry>
        </mxCell>
        <mxCell id="kT5wU6VZecdG8zgLiYxm-80" value="\(x_1\)" style="text;html=1;strokeColor=none;fillColor=none;align=center;verticalAlign=middle;whiteSpace=wrap;rounded=0;fontSize=16;" vertex="1" parent="fOfSJAuA315CUXJoR_F2-1">
          <mxGeometry x="530" y="370" width="90" height="30" as="geometry" />
        </mxCell>
        <mxCell id="kT5wU6VZecdG8zgLiYxm-81" value="\(x_2\)" style="text;html=1;strokeColor=none;fillColor=none;align=center;verticalAlign=middle;whiteSpace=wrap;rounded=0;fontSize=16;" vertex="1" parent="fOfSJAuA315CUXJoR_F2-1">
          <mxGeometry x="530" y="455" width="90" height="30" as="geometry" />
        </mxCell>
        <mxCell id="kT5wU6VZecdG8zgLiYxm-82" value="\(x_3\)" style="text;html=1;strokeColor=none;fillColor=none;align=center;verticalAlign=middle;whiteSpace=wrap;rounded=0;fontSize=16;" vertex="1" parent="fOfSJAuA315CUXJoR_F2-1">
          <mxGeometry x="530" y="530" width="90" height="30" as="geometry" />
        </mxCell>
        <mxCell id="kT5wU6VZecdG8zgLiYxm-159" value="" style="verticalLabelPosition=bottom;verticalAlign=top;html=1;shape=mxgraph.basic.x;fontSize=16;fillColor=#FF3333;fontColor=#ffffff;strokeColor=#FF3333;strokeWidth=1;aspect=fixed;" vertex="1" parent="fOfSJAuA315CUXJoR_F2-1">
          <mxGeometry x="917.5" y="335" width="25" height="25" as="geometry" />
        </mxCell>
        <mxCell id="kT5wU6VZecdG8zgLiYxm-160" value="" style="verticalLabelPosition=bottom;verticalAlign=top;html=1;shape=mxgraph.basic.x;fontSize=16;fillColor=#FF3333;fontColor=#ffffff;strokeColor=#FF3333;strokeWidth=1;aspect=fixed;" vertex="1" parent="fOfSJAuA315CUXJoR_F2-1">
          <mxGeometry x="917.5" y="497.5" width="25" height="25" as="geometry" />
        </mxCell>
        <mxCell id="kT5wU6VZecdG8zgLiYxm-161" value="" style="verticalLabelPosition=bottom;verticalAlign=top;html=1;shape=mxgraph.basic.x;fontSize=16;fillColor=#FF3333;fontColor=#ffffff;strokeColor=#FF3333;strokeWidth=1;aspect=fixed;" vertex="1" parent="fOfSJAuA315CUXJoR_F2-1">
          <mxGeometry x="677.5" y="417.5" width="25" height="25" as="geometry" />
        </mxCell>
        <mxCell id="kT5wU6VZecdG8zgLiYxm-162" value="" style="verticalLabelPosition=bottom;verticalAlign=top;html=1;shape=mxgraph.basic.x;fontSize=16;fillColor=#FF3333;fontColor=#ffffff;strokeColor=#FF3333;strokeWidth=1;aspect=fixed;" vertex="1" parent="fOfSJAuA315CUXJoR_F2-1">
          <mxGeometry x="677.5" y="577.5" width="25" height="25" as="geometry" />
        </mxCell>
        <mxCell id="kT5wU6VZecdG8zgLiYxm-163" value="" style="verticalLabelPosition=bottom;verticalAlign=top;html=1;shape=mxgraph.basic.x;fontSize=16;fillColor=#FF3333;fontColor=#ffffff;strokeColor=#FF3333;strokeWidth=1;aspect=fixed;" vertex="1" parent="fOfSJAuA315CUXJoR_F2-1">
          <mxGeometry x="797.5" y="337.5" width="25" height="25" as="geometry" />
        </mxCell>
        <mxCell id="kT5wU6VZecdG8zgLiYxm-164" value="" style="verticalLabelPosition=bottom;verticalAlign=top;html=1;shape=mxgraph.basic.x;fontSize=16;fillColor=#FF3333;fontColor=#ffffff;strokeColor=#FF3333;strokeWidth=1;aspect=fixed;" vertex="1" parent="fOfSJAuA315CUXJoR_F2-1">
          <mxGeometry x="797.5" y="577.5" width="25" height="25" as="geometry" />
        </mxCell>
      </root>
    </mxGraphModel>
  </diagram>
</mxfile>
